<?xml version="1.0" encoding="UTF-8"?>
<!DOCTYPE svg PUBLIC "-//W3C//DTD SVG 1.1//EN" "http://www.w3.org/Graphics/SVG/1.1/DTD/svg11.dtd">
<!-- Creator: CorelDRAW 2020 (64 Bit) -->
<svg xmlns="http://www.w3.org/2000/svg" xml:space="preserve" width="271.007mm" height="85.3445mm" version="1.1" style="shape-rendering:geometricPrecision; text-rendering:geometricPrecision; image-rendering:optimizeQuality; fill-rule:evenodd; clip-rule:evenodd"
viewBox="0 0 27064.91 8523.19"
 xmlns:xlink="http://www.w3.org/1999/xlink"
 xmlns:xodm="http://www.corel.com/coreldraw/odm/2003">
 <defs>
  <style type="text/css">
   <![CDATA[
    .fil0 {fill:#038ED7}
    .fil2 {fill:#041527}
    .fil1 {fill:#121212}
   ]]>
  </style>
 </defs>
 <g id="Camada_x0020_1">
  <metadata id="CorelCorpID_0Corel-Layer"/>
  <path class="fil0" d="M22990.09 6274.73c-2452.94,0 -2878.92,-2859.13 -1130.13,-3849.18 386.19,-218.64 712.48,-229.4 1130.13,-229.4 626.58,0 1018.76,314.24 1347.07,639.93 183.74,182.25 290.12,328.56 402.45,591.05 597.22,1395.73 -514.65,2847.59 -1749.52,2847.59zm-4340.04 -2248.43c0,1413.09 338.26,2289.86 1293.93,3255.26 523.44,528.76 1279.81,914.09 2012.42,1072.65 1391.45,301.17 2854.73,-127.84 3845.74,-1097.56 1673,-1637.05 1685.69,-4366.65 25.66,-6015.78 -1825.59,-1813.59 -4822.29,-1582.31 -6356.64,469.15 -462.69,618.62 -821.12,1464.17 -821.12,2316.27z"/>
  <path class="fil1" d="M2143.88 4235.45c0,-1671.43 1893.06,-2761.26 3400.96,-1570.82 566.73,447.43 677.64,1064.29 677.64,1727.7 0,991.25 -984.43,1882.4 -1987.01,1882.4 -1153.02,0 -2091.59,-889.78 -2091.59,-2039.29zm-2143.87 -366.03c0,915.26 -7.37,1353.33 403.82,2210.65 599.77,1250.45 2064.68,2338.54 3570.2,2338.54 1415.03,0 2270.31,-317.18 3229,-1267.91 2525.98,-2505.01 902.46,-7150.71 -3124.41,-7150.71 -553.48,0 -1235.51,194.41 -1621.02,365.99 -883.17,393.09 -1591.18,1090.65 -2022.04,1951.97 -200.8,401.49 -435.53,982.58 -435.53,1551.46z"/>
  <path class="fil2" d="M8200.53 209.15l0 1777.84c0,120.49 36.38,156.87 156.88,156.87l1359.51 0 0 6379.33 2196.16 0 0 -6379.33 1307.24 0c120.48,0 156.86,-36.38 156.86,-156.87l0 -1777.84c0,-120.48 -36.38,-156.86 -156.86,-156.86l-4862.92 0c-120.5,0 -156.88,36.38 -156.88,156.86z"/>
  <polygon class="fil2" points="13743.22,2143.87 15259.62,2143.87 15259.62,8523.19 17455.79,8523.19 17455.79,2143.87 18867.61,2143.87 18867.61,52.29 13743.22,52.29 "/>
  <path class="fil0" d="M2980.51 4078.59l0 261.44c0,1040.52 1444.59,1461.49 2100,740.46 758.05,-833.96 202.09,-2100 -949.62,-2100 -557.41,0 -1150.38,537.65 -1150.38,1098.09z"/>
  <path class="fil2" d="M21630.57 4130.86c0,881.18 639.34,1381.96 1244.6,1345.2 1083.54,-65.78 1633.43,-1322.02 836.47,-2119.02 -468.78,-468.78 -1191.73,-487.12 -1692.44,-40.2 -179.03,159.78 -388.62,496.12 -388.62,814.01z"/>
 </g>
</svg>
